<?xml version="1.0" encoding="UTF-8" standalone="no"?>
<!DOCTYPE svg PUBLIC "-//W3C//DTD SVG 1.1//EN"
 "http://www.w3.org/Graphics/SVG/1.1/DTD/svg11.dtd">
<!-- Generated by graphviz version 2.38.0 (20140413.2041)
 -->
<!-- Title: G Pages: 1 -->
<svg width="317pt" height="381pt"
 viewBox="0.00 0.00 317.25 381.00" xmlns="http://www.w3.org/2000/svg" xmlns:xlink="http://www.w3.org/1999/xlink">
<g id="graph0" class="graph" transform="scale(1 1) rotate(0) translate(4 377)">
<title>G</title>
<polygon fill="white" stroke="none" points="-4,4 -4,-377 313.249,-377 313.249,4 -4,4"/>
<g id="clust1" class="cluster"><title>cluster_Global</title>
<path fill="none" stroke="gray" d="M156.834,-8C156.834,-8 289.249,-8 289.249,-8 295.249,-8 301.249,-14 301.249,-20 301.249,-20 301.249,-353 301.249,-353 301.249,-359 295.249,-365 289.249,-365 289.249,-365 156.834,-365 156.834,-365 150.834,-365 144.834,-359 144.834,-353 144.834,-353 144.834,-20 144.834,-20 144.834,-14 150.834,-8 156.834,-8"/>
<text text-anchor="middle" x="223.042" y="-352.2" font-family="Times,serif" font-size="11.00" fill="gray">Global</text>
</g>
<g id="clust2" class="cluster"><title>cluster_\Vicimus</title>
<path fill="none" stroke="gray" d="M164.834,-16C164.834,-16 281.249,-16 281.249,-16 287.249,-16 293.249,-22 293.249,-28 293.249,-28 293.249,-326 293.249,-326 293.249,-332 287.249,-338 281.249,-338 281.249,-338 164.834,-338 164.834,-338 158.834,-338 152.834,-332 152.834,-326 152.834,-326 152.834,-28 152.834,-28 152.834,-22 158.834,-16 164.834,-16"/>
<text text-anchor="middle" x="223.042" y="-325.2" font-family="Times,serif" font-size="11.00" fill="gray">Vicimus</text>
</g>
<g id="clust3" class="cluster"><title>cluster_\Vicimus\Twicimus</title>
<path fill="none" stroke="gray" d="M172.834,-24C172.834,-24 273.249,-24 273.249,-24 279.249,-24 285.249,-30 285.249,-36 285.249,-36 285.249,-299 285.249,-299 285.249,-305 279.249,-311 273.249,-311 273.249,-311 172.834,-311 172.834,-311 166.834,-311 160.834,-305 160.834,-299 160.834,-299 160.834,-36 160.834,-36 160.834,-30 166.834,-24 172.834,-24"/>
<text text-anchor="middle" x="223.042" y="-298.2" font-family="Times,serif" font-size="11.00" fill="gray">Twicimus</text>
</g>
<!-- \\Vicimus\\Twicimus\\Tweet -->
<g id="node1" class="node"><title>\\Vicimus\\Twicimus\\Tweet</title>
<polygon fill="none" stroke="black" points="250.042,-284 196.042,-284 196.042,-248 250.042,-248 250.042,-284"/>
<text text-anchor="middle" x="223.042" y="-262.7" font-family="Courier,monospace" font-size="11.00">Tweet</text>
</g>
<!-- \\Vicimus\\Twicimus\\TwitterUser -->
<g id="node2" class="node"><title>\\Vicimus\\Twicimus\\TwitterUser</title>
<polygon fill="none" stroke="black" points="267.154,-230 178.929,-230 178.929,-194 267.154,-194 267.154,-230"/>
<text text-anchor="middle" x="223.042" y="-208.7" font-family="Courier,monospace" font-size="11.00">TwitterUser</text>
</g>
<!-- \\Vicimus\\Twicimus\\OAuthException -->
<g id="node3" class="node"><title>\\Vicimus\\Twicimus\\OAuthException</title>
<polygon fill="none" stroke="black" points="277.457,-176 168.626,-176 168.626,-140 277.457,-140 277.457,-176"/>
<text text-anchor="middle" x="223.042" y="-154.7" font-family="Courier,monospace" font-size="11.00">OAuthException</text>
</g>
<!-- \\Exception -->
<g id="node6" class="node"><title>\\Exception</title>
<ellipse fill="none" stroke="black" cx="48.417" cy="-158" rx="48.3341" ry="18"/>
<text text-anchor="middle" x="48.417" y="-153.8" font-family="Times,serif" font-size="14.00" fill="gray">\Exception</text>
</g>
<!-- \\Vicimus\\Twicimus\\OAuthException&#45;&gt;\\Exception -->
<g id="edge1" class="edge"><title>\\Vicimus\\Twicimus\\OAuthException&#45;&gt;\\Exception</title>
<path fill="none" stroke="black" d="M168.368,-158C148.899,-158 126.832,-158 107.036,-158"/>
<polygon fill="none" stroke="black" points="106.918,-154.5 96.9175,-158 106.917,-161.5 106.918,-154.5"/>
</g>
<!-- \\Vicimus\\Twicimus\\TwitterRest -->
<g id="node4" class="node"><title>\\Vicimus\\Twicimus\\TwitterRest</title>
<polygon fill="none" stroke="black" points="267.154,-122 178.929,-122 178.929,-86 267.154,-86 267.154,-122"/>
<text text-anchor="middle" x="223.042" y="-100.7" font-family="Courier,monospace" font-size="11.00">TwitterRest</text>
</g>
<!-- \\Vicimus\\Twicimus\\OAuth -->
<g id="node5" class="node"><title>\\Vicimus\\Twicimus\\OAuth</title>
<polygon fill="none" stroke="black" points="250.042,-68 196.042,-68 196.042,-32 250.042,-32 250.042,-68"/>
<text text-anchor="middle" x="223.042" y="-46.7" font-family="Courier,monospace" font-size="11.00">OAuth</text>
</g>
</g>
</svg>
