<?xml version="1.0" encoding="UTF-8" standalone="no"?>
<!DOCTYPE svg PUBLIC "-//W3C//DTD SVG 1.1//EN"
 "http://www.w3.org/Graphics/SVG/1.1/DTD/svg11.dtd">
<!-- Generated by graphviz version 2.38.0 (20140413.2041)
 -->
<!-- Title: G Pages: 1 -->
<svg width="344pt" height="435pt"
 viewBox="0.00 0.00 343.65 435.00" xmlns="http://www.w3.org/2000/svg" xmlns:xlink="http://www.w3.org/1999/xlink">
<g id="graph0" class="graph" transform="scale(1 1) rotate(0) translate(4 431)">
<title>G</title>
<polygon fill="white" stroke="none" points="-4,4 -4,-431 339.653,-431 339.653,4 -4,4"/>
<g id="clust1" class="cluster"><title>cluster_Global</title>
<path fill="none" stroke="gray" d="M156.834,-8C156.834,-8 315.653,-8 315.653,-8 321.653,-8 327.653,-14 327.653,-20 327.653,-20 327.653,-407 327.653,-407 327.653,-413 321.653,-419 315.653,-419 315.653,-419 156.834,-419 156.834,-419 150.834,-419 144.834,-413 144.834,-407 144.834,-407 144.834,-20 144.834,-20 144.834,-14 150.834,-8 156.834,-8"/>
<text text-anchor="middle" x="236.244" y="-406.2" font-family="Times,serif" font-size="11.00" fill="gray">Global</text>
</g>
<g id="clust2" class="cluster"><title>cluster_\Vicimus</title>
<path fill="none" stroke="gray" d="M164.834,-16C164.834,-16 307.653,-16 307.653,-16 313.653,-16 319.653,-22 319.653,-28 319.653,-28 319.653,-380 319.653,-380 319.653,-386 313.653,-392 307.653,-392 307.653,-392 164.834,-392 164.834,-392 158.834,-392 152.834,-386 152.834,-380 152.834,-380 152.834,-28 152.834,-28 152.834,-22 158.834,-16 164.834,-16"/>
<text text-anchor="middle" x="236.244" y="-379.2" font-family="Times,serif" font-size="11.00" fill="gray">Vicimus</text>
</g>
<g id="clust3" class="cluster"><title>cluster_\Vicimus\Twicimus</title>
<path fill="none" stroke="gray" d="M172.834,-24C172.834,-24 299.653,-24 299.653,-24 305.653,-24 311.653,-30 311.653,-36 311.653,-36 311.653,-353 311.653,-353 311.653,-359 305.653,-365 299.653,-365 299.653,-365 172.834,-365 172.834,-365 166.834,-365 160.834,-359 160.834,-353 160.834,-353 160.834,-36 160.834,-36 160.834,-30 166.834,-24 172.834,-24"/>
<text text-anchor="middle" x="236.244" y="-352.2" font-family="Times,serif" font-size="11.00" fill="gray">Twicimus</text>
</g>
<!-- \\Vicimus\\Twicimus\\Tweet -->
<g id="node1" class="node"><title>\\Vicimus\\Twicimus\\Tweet</title>
<polygon fill="none" stroke="black" points="263.244,-338 209.244,-338 209.244,-302 263.244,-302 263.244,-338"/>
<text text-anchor="middle" x="236.244" y="-316.7" font-family="Courier,monospace" font-size="11.00">Tweet</text>
</g>
<!-- \\Vicimus\\Twicimus\\TwitterUser -->
<g id="node2" class="node"><title>\\Vicimus\\Twicimus\\TwitterUser</title>
<polygon fill="none" stroke="black" points="280.356,-284 192.131,-284 192.131,-248 280.356,-248 280.356,-284"/>
<text text-anchor="middle" x="236.244" y="-262.7" font-family="Courier,monospace" font-size="11.00">TwitterUser</text>
</g>
<!-- \\Vicimus\\Twicimus\\OAuthException -->
<g id="node3" class="node"><title>\\Vicimus\\Twicimus\\OAuthException</title>
<polygon fill="none" stroke="black" points="290.659,-230 181.828,-230 181.828,-194 290.659,-194 290.659,-230"/>
<text text-anchor="middle" x="236.244" y="-208.7" font-family="Courier,monospace" font-size="11.00">OAuthException</text>
</g>
<!-- \\Exception -->
<g id="node7" class="node"><title>\\Exception</title>
<ellipse fill="none" stroke="black" cx="48.417" cy="-212" rx="48.3341" ry="18"/>
<text text-anchor="middle" x="48.417" y="-207.8" font-family="Times,serif" font-size="14.00" fill="gray">\Exception</text>
</g>
<!-- \\Vicimus\\Twicimus\\OAuthException&#45;&gt;\\Exception -->
<g id="edge1" class="edge"><title>\\Vicimus\\Twicimus\\OAuthException&#45;&gt;\\Exception</title>
<path fill="none" stroke="black" d="M181.993,-212C158.532,-212 130.918,-212 106.983,-212"/>
<polygon fill="none" stroke="black" points="106.972,-208.5 96.9723,-212 106.972,-215.5 106.972,-208.5"/>
</g>
<!-- \\Vicimus\\Twicimus\\TwitterRest -->
<g id="node4" class="node"><title>\\Vicimus\\Twicimus\\TwitterRest</title>
<polygon fill="none" stroke="black" points="280.356,-176 192.131,-176 192.131,-140 280.356,-140 280.356,-176"/>
<text text-anchor="middle" x="236.244" y="-154.7" font-family="Courier,monospace" font-size="11.00">TwitterRest</text>
</g>
<!-- \\Vicimus\\Twicimus\\OAuth -->
<g id="node5" class="node"><title>\\Vicimus\\Twicimus\\OAuth</title>
<polygon fill="none" stroke="black" points="263.244,-122 209.244,-122 209.244,-86 263.244,-86 263.244,-122"/>
<text text-anchor="middle" x="236.244" y="-100.7" font-family="Courier,monospace" font-size="11.00">OAuth</text>
</g>
<!-- \\Vicimus\\Twicimus\\TwitterUserProfile -->
<g id="node6" class="node"><title>\\Vicimus\\Twicimus\\TwitterUserProfile</title>
<polygon fill="none" stroke="black" points="303.563,-68 168.924,-68 168.924,-32 303.563,-32 303.563,-68"/>
<text text-anchor="middle" x="236.244" y="-46.7" font-family="Courier,monospace" font-size="11.00">TwitterUserProfile</text>
</g>
</g>
</svg>
